# This file uses centimeters as units for non-parametric coordinates.

mtllib bathrooms.mtl
g default
v -13.662521 0.000000 17.593895
v 13.662525 0.000000 17.593895
v -13.662521 0.000000 -17.593899
v 13.662525 0.000000 -17.593899
v -13.662521 0.000000 17.593895
v 13.662525 0.000000 6.762878
v -13.662521 0.000000 -17.593899
v 13.662525 0.000000 -6.762882
v 6.691948 0.000000 17.593895
v 6.691948 0.000000 2.846390
v 6.691948 0.000000 -2.846390
v 6.691948 0.000000 -17.593899
v -13.662521 0.000000 2.846390
v 6.691948 0.000000 2.846390
v -13.662521 0.000000 -2.846390
v 6.691948 0.000000 -2.846390
vt 0.000000 0.518764
vt 0.682883 0.518764
vt 0.682883 0.894421
vt 0.000000 0.894421
vt 0.000000 0.000000
vt 0.682883 0.000000
vt 0.682883 0.357768
vt 0.000000 0.357768
vt 1.000000 0.000000
vt 1.000000 0.357768
vt 1.000000 0.518764
vt 1.000000 0.894421
vt 0.000000 0.000000
vt 1.000000 0.000000
vt 1.000000 1.000000
vt 0.000000 1.000000
vt 0.000000 0.000000
vt 1.000000 0.000000
vt 1.000000 1.000000
vt 0.000000 1.000000
vn 0.000000 0.000000 0.000000
vn 0.000000 1.000000 0.000000
vn 0.000000 1.000000 0.000000
vn 0.000000 0.000000 0.000000
vn 0.000000 0.000000 0.000000
vn 0.000000 1.000000 0.000000
vn 0.000000 1.000000 0.000000
vn 0.000000 0.000000 0.000000
vn 0.000000 1.000000 0.000000
vn 0.000000 1.000000 0.000000
vn 0.000000 1.000000 0.000000
vn 0.000000 1.000000 0.000000
vn 0.000000 1.000000 0.000000
vn 0.000000 0.000000 0.000000
vn 0.000000 0.000000 0.000000
vn 0.000000 1.000000 0.000000
vn 0.000000 0.000000 0.000000
vn 0.000000 1.000000 0.000000
vn 0.000000 1.000000 0.000000
vn 0.000000 0.000000 0.000000
s 1
g bathrooms_floor bathrooms
usemtl anisotropic1SG
f 7/1/1 11/2/2 12/3/3 3/4/4
f 1/5/5 9/6/6 10/7/7 5/8/8
f 10/7/7 9/6/6 2/9/9 6/10/10
f 11/2/2 10/7/7 6/10/10 8/11/11
f 12/3/3 11/2/2 8/11/11 4/12/12
s off
f 5/13/13 10/14/14 14/15/15 13/16/16
f 11/17/17 7/18/18 15/19/19 16/20/20
g default
v 6.691948 5.000001 2.846390
v 6.691948 0.000000 2.846390
v 6.691948 5.000001 -2.846390
v 6.691948 0.000000 -2.846390
vt 0.000000 0.000000
vt 0.178933 0.000000
vt 0.178933 1.000000
vt 0.000000 1.000000
vn 1.000000 0.000000 0.000000
vn 1.000000 0.000000 0.000000
vn 1.000000 0.000000 0.000000
vn 1.000000 0.000000 0.000000
s off
g bathrooms bathrooms_walls1
usemtl anisotropic1SG
f 17/21/21 18/22/22 20/23/23 19/24/24
g default
v 6.691944 5.000001 -2.846390
v 6.691944 0.000000 -2.846390
v -13.662525 5.000001 -2.846390
v -13.662525 0.000000 -2.846390
vt 0.000000 0.000000
vt 0.178933 0.000000
vt 0.178933 1.000000
vt 0.000000 1.000000
vn 0.000000 0.000000 -1.000000
vn 0.000000 0.000000 -1.000000
vn 0.000000 0.000000 -1.000000
vn 0.000000 0.000000 -1.000000
s off
g bathrooms bathrooms_walls2
usemtl anisotropic1SG
f 21/25/25 22/26/26 24/27/27 23/28/28
g default
v -13.662521 5.000001 2.846382
v -13.662521 0.000000 2.846382
v 6.691948 5.000001 2.846382
v 6.691948 0.000000 2.846382
vt 0.000000 0.000000
vt 0.178933 0.000000
vt 0.178933 1.000000
vt 0.000000 1.000000
vn 0.000000 0.000000 1.000000
vn 0.000000 0.000000 1.000000
vn 0.000000 0.000000 1.000000
vn 0.000000 0.000000 1.000000
s off
g bathrooms bathrooms_walls3
usemtl anisotropic1SG
f 25/29/29 26/30/30 28/31/31 27/32/32
g default
v 5.172684 0.000000 13.410149
v 6.698952 0.000000 13.410149
v 5.172684 5.000000 13.410149
v 6.698952 5.000000 13.410149
v 5.172684 5.000000 2.846382
v 6.698952 5.000000 2.846382
v 5.172684 0.000000 2.846382
v 6.698952 0.000000 2.846382
vt 0.375000 0.000000
vt 0.625000 0.000000
vt 0.625000 0.250000
vt 0.375000 0.250000
vt 0.625000 0.500000
vt 0.375000 0.500000
vt 0.625000 0.750000
vt 0.375000 0.750000
vt 0.625000 1.000000
vt 0.375000 1.000000
vt 0.875000 0.000000
vt 0.875000 0.250000
vt 0.125000 0.000000
vt 0.125000 0.250000
vn 0.000000 0.000000 1.000000
vn 0.000000 0.000000 1.000000
vn 0.000000 0.000000 1.000000
vn 0.000000 0.000000 1.000000
vn 0.000000 1.000000 0.000000
vn 0.000000 1.000000 0.000000
vn 0.000000 1.000000 0.000000
vn 0.000000 1.000000 0.000000
vn 0.000000 0.000000 -1.000000
vn 0.000000 0.000000 -1.000000
vn 0.000000 0.000000 -1.000000
vn 0.000000 0.000000 -1.000000
vn 0.000000 -1.000000 0.000000
vn 0.000000 -1.000000 0.000000
vn 0.000000 -1.000000 0.000000
vn 0.000000 -1.000000 0.000000
vn 1.000000 0.000000 0.000000
vn 1.000000 0.000000 0.000000
vn 1.000000 0.000000 0.000000
vn 1.000000 0.000000 0.000000
vn -1.000000 0.000000 0.000000
vn -1.000000 0.000000 0.000000
vn -1.000000 0.000000 0.000000
vn -1.000000 0.000000 0.000000
s off
g bathrooms bathrooms_walls4
usemtl anisotropic1SG
f 29/33/33 30/34/34 32/35/35 31/36/36
f 31/36/37 32/35/38 34/37/39 33/38/40
f 33/38/41 34/37/42 36/39/43 35/40/44
f 35/40/45 36/39/46 30/41/47 29/42/48
f 30/34/49 36/43/50 34/44/51 32/35/52
f 35/45/53 29/33/54 31/36/55 33/46/56
g default
v 13.662525 5.000001 17.593887
v 13.662525 0.000000 17.593887
v -13.662521 5.000001 17.593887
v -13.662521 0.000000 17.593887
vt 0.000000 0.000000
vt 0.178933 0.000000
vt 0.178933 1.000000
vt 0.000000 1.000000
vn 0.000000 0.000000 -1.000000
vn 0.000000 0.000000 -1.000000
vn 0.000000 0.000000 -1.000000
vn 0.000000 0.000000 -1.000000
s off
g bathrooms bathrooms_walls5
usemtl anisotropic1SG
f 37/47/57 38/48/58 40/49/59 39/50/60
g default
v -13.662521 5.000001 -17.593903
v -13.662521 0.000000 -17.593903
v 13.662525 5.000001 -17.593903
v 13.662525 0.000000 -17.593903
vt 0.000000 0.000000
vt 0.178933 0.000000
vt 0.178933 1.000000
vt 0.000000 1.000000
vn 0.000000 0.000000 1.000000
vn 0.000000 0.000000 1.000000
vn 0.000000 0.000000 1.000000
vn 0.000000 0.000000 1.000000
s off
g bathrooms bathrooms_walls6
usemtl anisotropic1SG
f 41/51/61 42/52/62 44/53/63 43/54/64
g default
v 5.172684 0.000000 -2.846390
v 6.698952 0.000000 -2.846390
v 5.172684 5.000000 -2.846390
v 6.698952 5.000000 -2.846390
v 5.172684 5.000000 -13.410156
v 6.698952 5.000000 -13.410156
v 5.172684 0.000000 -13.410156
v 6.698952 0.000000 -13.410156
vt 0.375000 0.000000
vt 0.625000 0.000000
vt 0.625000 0.250000
vt 0.375000 0.250000
vt 0.625000 0.500000
vt 0.375000 0.500000
vt 0.625000 0.750000
vt 0.375000 0.750000
vt 0.625000 1.000000
vt 0.375000 1.000000
vt 0.875000 0.000000
vt 0.875000 0.250000
vt 0.125000 0.000000
vt 0.125000 0.250000
vn 0.000000 0.000000 1.000000
vn 0.000000 0.000000 1.000000
vn 0.000000 0.000000 1.000000
vn 0.000000 0.000000 1.000000
vn 0.000000 1.000000 0.000000
vn 0.000000 1.000000 0.000000
vn 0.000000 1.000000 0.000000
vn 0.000000 1.000000 0.000000
vn 0.000000 0.000000 -1.000000
vn 0.000000 0.000000 -1.000000
vn 0.000000 0.000000 -1.000000
vn 0.000000 0.000000 -1.000000
vn 0.000000 -1.000000 0.000000
vn 0.000000 -1.000000 0.000000
vn 0.000000 -1.000000 0.000000
vn 0.000000 -1.000000 0.000000
vn 1.000000 0.000000 0.000000
vn 1.000000 0.000000 0.000000
vn 1.000000 0.000000 0.000000
vn 1.000000 0.000000 0.000000
vn -1.000000 0.000000 0.000000
vn -1.000000 0.000000 0.000000
vn -1.000000 0.000000 0.000000
vn -1.000000 0.000000 0.000000
s off
g bathrooms bathrooms_walls7
usemtl anisotropic1SG
f 45/55/65 46/56/66 48/57/67 47/58/68
f 47/58/69 48/57/70 50/59/71 49/60/72
f 49/60/73 50/59/74 52/61/75 51/62/76
f 51/62/77 52/61/78 46/63/79 45/64/80
f 46/56/81 52/65/82 50/66/83 48/57/84
f 51/67/85 45/55/86 47/58/87 49/68/88
g default
v -13.662521 5.000001 -2.846390
v -13.662521 0.000000 -2.846390
v -13.662521 5.000001 -17.593903
v -13.662521 0.000000 -17.593903
vt 0.000000 0.000000
vt 0.178933 0.000000
vt 0.178933 1.000000
vt 0.000000 1.000000
vn 1.000000 0.000000 0.000000
vn 1.000000 0.000000 0.000000
vn 1.000000 0.000000 0.000000
vn 1.000000 0.000000 0.000000
s off
g bathrooms bathrooms_walls8
usemtl anisotropic1SG
f 53/69/89 54/70/90 56/71/91 55/72/92
g default
v -13.662521 5.000001 17.593887
v -13.662521 0.000000 17.593887
v -13.662521 5.000001 2.846382
v -13.662521 0.000000 2.846382
vt 0.000000 0.000000
vt 0.178933 0.000000
vt 0.178933 1.000000
vt 0.000000 1.000000
vn 1.000000 0.000000 0.000000
vn 1.000000 0.000000 0.000000
vn 1.000000 0.000000 0.000000
vn 1.000000 0.000000 0.000000
s off
g bathrooms bathrooms_walls9
usemtl anisotropic1SG
f 57/73/93 58/74/94 60/75/95 59/76/96
g default
v 13.662525 5.000001 3.090828
v 13.662525 0.000000 3.090828
v 13.662525 5.000001 17.593895
v 13.662525 0.000000 17.593895
vt 0.000000 0.000000
vt 0.178933 0.000000
vt 0.178933 1.000000
vt 0.000000 1.000000
vn -1.000000 0.000000 0.000000
vn -1.000000 0.000000 0.000000
vn -1.000000 0.000000 0.000000
vn -1.000000 0.000000 0.000000
s off
g bathrooms bathrooms_walls10
usemtl anisotropic1SG
f 61/77/97 62/78/98 64/79/99 63/80/100
g default
v 13.662525 5.000001 -17.593903
v 13.662525 0.000000 -17.593903
v 13.662525 5.000001 -3.117920
v 13.662525 0.000000 -3.117920
vt 0.000000 0.000000
vt 0.178933 0.000000
vt 0.178933 1.000000
vt 0.000000 1.000000
vn -1.000000 0.000000 0.000000
vn -1.000000 0.000000 0.000000
vn -1.000000 0.000000 0.000000
vn -1.000000 0.000000 0.000000
s off
g bathrooms bathrooms_walls11
usemtl anisotropic1SG
f 65/81/101 66/82/102 68/83/103 67/84/104
g default
v 13.662525 5.000001 17.593891
v -13.662520 5.000001 17.593891
v 13.662525 5.000001 -17.593899
v -13.662520 5.000001 -17.593899
v 13.662525 5.000001 2.846386
v -13.662520 5.000001 2.846386
v 13.662525 5.000001 -2.846386
v -13.662519 5.000001 -2.846386
v 6.691947 5.000001 17.593891
v 6.691947 5.000001 2.846386
v 6.691948 5.000001 -2.846386
v 6.691947 5.000001 -17.593899
vt 0.000000 0.000000
vt 0.775046 0.000000
vt 0.000000 1.000000
vt 0.775046 1.000000
vt 0.000000 0.428141
vt 0.775046 0.428141
vt 0.000000 0.582511
vt 0.775046 0.582511
vt 0.223423 0.000000
vt 0.223423 0.428141
vt 0.223423 0.582511
vt 0.223423 1.000000
vn 0.000000 -1.000000 0.000000
vn 0.000000 -1.000000 0.000000
vn 0.000000 -1.000000 0.000000
vn 0.000000 -1.000000 0.000000
vn 0.000000 -1.000000 0.000000
vn 0.000000 -1.000000 0.000000
vn 0.000000 -1.000000 -0.000000
vn 0.000000 -1.000000 -0.000000
vn 0.000000 -1.000000 0.000000
vn 0.000000 -1.000000 0.000000
vn 0.000000 -1.000000 0.000000
vn 0.000000 -1.000000 0.000000
s 1
g bathrooms bathrooms_ceiling
usemtl initialShadingGroup
f 75/91/105 79/95/106 80/96/107 71/87/108
f 69/85/109 77/93/110 78/94/111 73/89/112
f 73/89/112 78/94/111 79/95/106 75/91/105
f 78/94/111 77/93/110 70/86/113 74/90/114
f 80/96/107 79/95/106 76/92/115 72/88/116
