# This file uses centimeters as units for non-parametric coordinates.

mtllib cash_register.mtl
g default
v 0.381912 0.221334 -0.374557
v -0.401276 0.221334 -0.374557
v 0.381912 0.593071 -0.374557
v -0.401276 0.593071 -0.374557
v 0.381912 0.593071 -0.258286
v -0.401276 0.593071 -0.258286
v 0.381912 0.473001 -0.374557
v -0.401276 0.473001 -0.374557
v -0.401276 0.473001 -0.199783
v 0.381912 0.473001 -0.199783
v 0.381912 0.397635 -0.374557
v -0.401276 0.397635 -0.374557
v -0.401276 0.397635 -0.199783
v 0.381912 0.397635 -0.199783
v -0.362122 0.221334 0.348602
v -0.390785 0.221334 0.319931
v -0.401276 0.221334 0.280777
v -0.322968 0.221334 0.359085
v -0.322968 0.323070 0.359085
v -0.401276 0.333518 0.280777
v -0.390785 0.328294 0.319931
v -0.362122 0.324469 0.348602
v 0.371437 0.221334 0.319931
v 0.342766 0.221334 0.348602
v 0.303612 0.221334 0.359085
v 0.381912 0.221334 0.280777
v 0.303612 0.323069 0.359085
v 0.342766 0.324469 0.348602
v 0.371437 0.328294 0.319931
v 0.381912 0.333518 0.280777
v 0.522720 0.000000 -0.459106
v -0.522720 0.000000 -0.459106
v 0.522720 0.221334 -0.459106
v -0.522720 0.221334 -0.459106
v 0.522720 0.221334 0.459106
v -0.522720 0.221334 0.459106
v 0.522720 0.000000 0.459106
v -0.522720 0.000000 0.459106
v 0.000000 0.000000 -0.459106
v 0.000000 0.000000 0.459106
v 0.000000 0.221334 0.459106
v 0.000000 0.221334 -0.459106
v 0.522720 0.221334 0.000000
v 0.000000 0.221334 0.000000
v -0.522720 0.221334 0.000000
v -0.522720 0.000000 0.000000
v 0.000000 0.000000 0.000000
v 0.522720 0.000000 0.000000
vt 0.375000 0.000000
vt 0.375000 0.250000
vt 0.625000 0.250000
vt 0.375000 0.500000
vt 0.625000 0.500000
vt 0.875000 0.250000
vt 0.125000 0.250000
vt 0.375000 0.169251
vt 0.625000 0.169251
vt 0.625000 0.580749
vt 0.875000 0.169251
vt 0.125000 0.169251
vt 0.375000 0.580749
vt 0.625000 0.118566
vt 0.625000 0.631434
vt 0.875000 0.118566
vt 0.125000 0.118566
vt 0.375000 0.631434
vt 0.625000 0.000000
vt 0.874973 0.118566
vt 0.375000 0.118566
vt 0.125027 0.118566
vt 0.624997 1.000000
vt 0.375000 1.000000
vt 0.625000 0.750000
vt 0.875000 0.000000
vt 0.625000 0.763760
vt 0.861240 -0.000000
vt 0.625000 0.777523
vt 0.847477 -0.000000
vt 0.611041 0.748327
vt 0.611049 0.735691
vt 0.874998 0.028524
vt 0.625000 0.721476
vt 0.875000 0.020933
vt 0.625000 0.729067
vt 0.625000 0.734991
vt 0.875000 0.015009
vt 0.375000 0.750000
vt 0.125000 0.000000
vt 0.375000 0.742792
vt 0.125000 0.007208
vt 0.388958 0.741701
vt 0.139563 -0.000000
vt 0.375000 0.764563
vt 0.388951 0.726551
vt 0.125000 0.025550
vt 0.375000 0.724450
vt 0.125002 0.032236
vt 0.375000 0.717764
vt 0.375000 0.711052
vt 0.125004 0.038948
vt 0.500000 0.250000
vt 0.500000 0.000000
vt 0.625000 0.000000
vt 0.625000 0.250000
vt 0.500000 0.500000
vt 0.500000 0.375000
vt 0.625000 0.375000
vt 0.625000 0.500000
vt 0.500000 0.750000
vt 0.625000 0.750000
vt 0.625000 0.875000
vt 0.500000 0.875000
vt 0.750000 0.250000
vt 0.750000 0.000000
vt 0.875000 0.000000
vt 0.875000 0.250000
vt 0.125000 0.000000
vt 0.250000 0.000000
vt 0.250000 0.250000
vt 0.125000 0.250000
vt 0.375000 0.750000
vt 0.375000 0.875000
vt 0.375000 0.500000
vt 0.375000 0.375000
vt 0.375000 0.000000
vt 0.375000 0.250000
vt 0.500000 1.000000
vt 0.625000 1.000000
vt 0.375000 1.000000
vn 0.000000 0.000000 -1.000000
vn 0.000000 0.000000 -1.000000
vn 0.000000 0.000000 -1.000000
vn 0.000000 0.000000 -1.000000
vn 0.000000 1.000000 0.000000
vn 0.000000 1.000000 0.000000
vn 0.000000 1.000000 0.000000
vn 0.000000 1.000000 0.000000
vn 0.000000 0.438012 0.898969
vn 0.000000 0.438012 0.898969
vn 0.000000 0.286770 0.957999
vn 0.000000 0.286770 0.957999
vn -1.000000 0.000000 0.000000
vn -1.000000 0.000000 0.000000
vn -1.000000 0.000000 0.000000
vn -1.000000 0.000000 0.000000
vn 1.000000 0.000000 0.000000
vn 1.000000 0.000000 0.000000
vn 1.000000 0.000000 0.000000
vn 1.000000 0.000000 0.000000
vn 0.000000 0.000000 -1.000000
vn 0.000000 0.000000 -1.000000
vn -1.000000 0.000000 0.000000
vn -1.000000 0.000000 0.000000
vn 0.000000 0.000000 1.000000
vn 0.000000 0.000000 1.000000
vn 1.000000 0.000000 0.000000
vn 1.000000 0.000000 0.000000
vn 0.000000 0.000000 -1.000000
vn 0.000000 0.000000 -1.000000
vn -1.000000 0.000000 0.000000
vn -0.999940 0.000000 0.011007
vn -0.999956 0.000000 0.009381
vn 0.999956 0.000000 0.009367
vn 0.999940 0.000000 0.010991
vn 1.000000 0.000000 0.000000
vn 0.015846 0.000000 0.999874
vn 0.016173 0.000000 0.999869
vn -0.016173 0.000000 0.999869
vn -0.015846 0.000000 0.999874
vn -0.965931 0.000000 0.258799
vn -0.965931 0.000000 0.258799
vn -0.707201 0.000000 0.707013
vn -0.502916 0.000000 0.864335
vn -0.512188 0.000000 0.858873
vn -0.707201 0.000000 0.707013
vn 0.502873 0.000000 0.864360
vn 0.512143 0.000000 0.858900
vn 0.707107 0.000000 0.707106
vn 0.707107 0.000000 0.707106
vn 0.966025 0.000000 0.258448
vn 0.966025 0.000000 0.258448
vn 0.000000 -1.000000 -0.000000
vn 0.000000 -1.000000 -0.000000
vn 0.000000 -1.000000 -0.000000
vn 0.000000 -1.000000 -0.000000
vn 0.000000 -1.000000 -0.000000
vn 0.000000 -1.000000 -0.000000
vn 0.000000 -1.000000 -0.000000
vn 0.000000 -1.000000 -0.000000
vn 0.000000 -1.000000 -0.000000
vn 0.000000 -1.000000 -0.000000
vn 0.000000 0.991216 0.132250
vn 0.000000 0.991216 0.132250
vn 0.000000 0.991216 0.132250
vn 0.000000 0.991216 0.132250
vn 0.000000 0.991216 0.132250
vn 0.000000 0.991216 0.132250
vn 0.000000 0.991216 0.132250
vn 0.000000 0.991216 0.132250
vn 0.000000 0.991216 0.132250
vn 0.000000 0.991216 0.132250
vn 0.000000 0.000000 -1.000000
vn 0.000000 0.000000 -1.000000
vn 0.000000 0.000000 -1.000000
vn 0.000000 0.000000 -1.000000
vn 0.000000 1.000000 0.000000
vn 0.000000 1.000000 0.000000
vn 0.000000 1.000000 0.000000
vn 0.000000 1.000000 0.000000
vn 0.000000 0.000000 1.000000
vn 0.000000 0.000000 1.000000
vn 0.000000 0.000000 1.000000
vn 0.000000 0.000000 1.000000
vn 0.000000 -1.000000 0.000000
vn 0.000000 -1.000000 0.000000
vn 0.000000 -1.000000 0.000000
vn 0.000000 -1.000000 0.000000
vn -1.000000 0.000000 0.000000
vn -1.000000 0.000000 0.000000
vn -1.000000 0.000000 0.000000
vn -1.000000 0.000000 0.000000
vn 1.000000 0.000000 0.000000
vn 1.000000 0.000000 0.000000
vn 1.000000 0.000000 0.000000
vn 1.000000 0.000000 0.000000
vn 0.000000 -1.000000 0.000000
vn 0.000000 -1.000000 0.000000
vn 0.000000 0.000000 1.000000
vn 0.000000 0.000000 1.000000
vn 0.000000 1.000000 0.000000
vn 0.000000 1.000000 0.000000
vn 0.000000 0.000000 -1.000000
vn 0.000000 0.000000 -1.000000
vn 0.000000 1.000000 0.000000
vn 0.000000 1.000000 0.000000
vn 0.000000 1.000000 0.000000
vn -1.000000 0.000000 0.000000
vn -1.000000 0.000000 0.000000
vn 0.000000 -1.000000 0.000000
vn 0.000000 -1.000000 0.000000
vn 0.000000 -1.000000 0.000000
vn 1.000000 0.000000 0.000000
vn 1.000000 0.000000 0.000000
s 1
g cash_register
usemtl anisotropic1SG
f 7/8/1 8/9/2 4/3/3 3/2/4
s off
f 3/2/5 4/3/6 6/5/7 5/4/8
s 2
f 5/4/9 6/5/10 9/10/11 10/13/12
s 3
f 8/9/13 9/11/14 6/6/15 4/3/16
s 4
f 10/12/17 7/8/18 3/2/19 5/7/20
s 1
f 11/21/21 12/14/22 8/9/2 7/8/1
s 3
f 12/14/23 13/16/24 9/11/14 8/9/13
s 2
f 10/13/12 9/10/11 13/15/25 14/18/26
s 4
f 14/17/27 11/21/28 7/8/18 10/12/17
s 1
f 1/1/29 2/19/30 12/14/22 11/21/21
s 3
f 2/19/31 17/30/32 20/33/33 13/20/24 12/14/23
s 4
f 30/52/34 26/44/35 1/1/36 11/21/28 14/22/27
s 5
f 25/43/37 27/46/38 19/32/39 18/31/40
s 3
f 17/30/32 16/28/41 21/35/42 20/33/33
s 5
f 16/28/43 15/26/44 22/38/45 21/35/46
f 15/25/44 18/31/40 19/32/39 22/37/45
f 25/43/37 24/41/47 28/48/48 27/46/38
f 24/42/47 23/40/49 29/49/50 28/47/48
s 4
f 23/40/51 26/44/35 30/52/34 29/49/52
s off
f 23/39/53 24/41/54 25/43/55 18/31/56 15/25/57 16/27/58 17/29/59 2/23/60 1/24/61 26/45/62
f 14/18/63 13/15/64 20/34/65 21/36/66 22/37/67 19/32/68 27/46/69 28/48/70 29/50/71 30/51/72
s 6
f 42/53/73 39/54/74 32/55/75 34/56/76
s 7
f 41/57/77 44/58/78 45/59/79 36/60/80
s 8
f 40/61/81 41/57/82 36/60/83 38/62/84
s 9
f 46/63/85 47/64/86 40/61/87 38/62/88
s 10
f 45/65/89 46/66/90 38/67/91 36/68/92
s 11
f 37/69/93 48/70/94 43/71/95 35/72/96
s 9
f 37/73/97 40/61/87 47/64/86 48/74/98
s 8
f 35/75/99 41/57/82 40/61/81 37/73/100
s 7
f 43/76/101 44/58/78 41/57/77 35/75/102
s 6
f 31/77/103 39/54/74 42/53/73 33/78/104
s 7
f 33/78/105 42/53/106 44/58/78 43/76/101
f 45/59/79 44/58/78 42/53/106 34/56/107
s 10
f 32/55/108 46/66/90 45/65/89 34/56/109
s 9
f 39/79/110 47/64/86 46/63/85 32/80/111
f 48/74/98 47/64/86 39/79/110 31/81/112
s 11
f 43/71/95 48/70/94 31/77/113 33/78/114
