# This file uses centimeters as units for non-parametric coordinates.

mtllib door_single_frame.mtl
g default
v 1.146504 0.000000 -0.373000
v 1.146502 0.000000 0.378284
v 1.146504 5.000000 -0.373000
v 1.146502 5.000000 0.378284
v 3.485291 5.000000 -0.373000
v 3.485290 5.000000 0.378284
v 3.485291 0.000000 -0.373000
v 3.485290 0.000000 0.378284
v 1.146504 4.101370 -0.373000
v 1.146502 4.101370 0.378284
v 3.485290 4.101370 0.378284
v 3.485291 4.101370 -0.373000
v -0.002365 4.101370 -0.375642
v -0.002367 4.101370 0.375641
v -0.002367 5.000000 0.375641
v -0.002365 5.000000 -0.375642
v -1.237217 0.000000 0.373000
v -1.237215 0.000000 -0.378284
v -1.237217 5.000000 0.373000
v -1.237215 5.000000 -0.378284
v -3.485287 5.000000 0.372999
v -3.485289 5.000000 -0.378284
v -3.485287 0.000000 0.372999
v -3.485289 0.000000 -0.378284
v -1.237217 4.101370 0.373000
v -1.237215 4.101370 -0.378284
v -3.485289 4.101370 -0.378284
v -3.485287 4.101370 0.372999
vt 0.375000 0.000000
vt 0.625000 0.000000
vt 0.375000 0.250000
vt 0.625000 0.250000
vt 0.375000 0.500000
vt 0.625000 0.500000
vt 0.375000 0.750000
vt 0.625000 0.750000
vt 0.375000 1.000000
vt 0.625000 1.000000
vt 0.875000 0.000000
vt 0.875000 0.250000
vt 0.125000 0.000000
vt 0.125000 0.250000
vt 0.375000 0.208840
vt 0.625000 0.208840
vt 0.625000 0.541160
vt 0.875000 0.208840
vt 0.125000 0.208840
vt 0.375000 0.541160
vt 0.375000 0.208840
vt 0.625000 0.208840
vt 0.625000 0.250000
vt 0.375000 0.250000
vt 0.375000 0.250000
vt 0.625000 0.250000
vt 0.625000 0.500000
vt 0.375000 0.500000
vt 0.625000 0.541160
vt 0.375000 0.541160
vt 0.375000 0.750000
vt 0.625000 0.750000
vt 0.625000 1.000000
vt 0.375000 1.000000
vt 0.625000 0.208840
vt 0.875000 0.208840
vt 0.875000 0.250000
vt 0.125000 0.208840
vt 0.375000 0.208840
vt 0.125000 0.250000
vt 0.375000 0.000000
vt 0.625000 0.000000
vt 0.875000 0.000000
vt 0.125000 0.000000
vt 0.625000 0.208840
vt 0.375000 0.208840
vt 0.625000 0.250000
vt 0.375000 0.250000
vn 0.000000 1.000000 0.000000
vn 0.000000 1.000000 0.000000
vn 0.000000 1.000000 0.000000
vn 0.000000 1.000000 0.000000
vn 1.000000 0.000000 0.000003
vn 1.000000 0.000000 0.000003
vn 1.000000 0.000000 0.000003
vn 1.000000 0.000000 0.000003
vn 0.000000 -1.000000 0.000000
vn 0.000000 -1.000000 0.000000
vn 0.000000 -1.000000 0.000000
vn 0.000000 -1.000000 0.000000
vn 0.000000 0.000000 1.000000
vn 0.000000 0.000000 1.000000
vn 0.000000 0.000000 1.000000
vn 0.000000 0.000000 1.000000
vn 0.000000 0.000000 -1.000000
vn 0.000000 0.000000 -1.000000
vn 0.000000 0.000000 -1.000000
vn 0.000000 0.000000 -1.000000
vn -1.000000 0.000000 -0.000003
vn -1.000000 0.000000 -0.000003
vn -1.000000 0.000000 -0.000003
vn -1.000000 0.000000 -0.000003
vn 0.000000 0.000000 1.000000
vn 0.000000 0.000000 1.000000
vn 1.000000 0.000000 0.000003
vn 1.000000 0.000000 0.000003
vn 0.000000 0.000000 -1.000000
vn 0.000000 0.000000 -1.000000
vn 0.000000 -1.000000 0.000000
vn 0.000000 -1.000000 0.000000
vn 0.000000 -1.000000 0.000000
vn 0.000000 -1.000000 0.000000
vn -0.002301 0.000000 0.999997
vn -0.002301 0.000000 0.999997
vn -0.002301 0.000000 0.999997
vn -0.002301 0.000000 0.999997
vn 0.000000 1.000000 0.000000
vn 0.000000 1.000000 0.000000
vn 0.000000 1.000000 0.000000
vn 0.000000 1.000000 0.000000
vn 0.002300 0.000000 -0.999997
vn 0.002300 0.000000 -0.999997
vn 0.002300 0.000000 -0.999997
vn 0.002300 0.000000 -0.999997
vn 0.000000 1.000000 0.000000
vn 0.000000 1.000000 0.000000
vn 0.000000 1.000000 0.000000
vn 0.000000 1.000000 0.000000
vn -1.000000 0.000000 0.000003
vn -1.000000 0.000000 0.000003
vn -1.000000 0.000000 0.000003
vn -1.000000 0.000000 0.000003
vn 0.000000 -1.000000 0.000000
vn 0.000000 -1.000000 0.000000
vn 0.000000 -1.000000 0.000000
vn 0.000000 -1.000000 0.000000
vn 0.000000 0.000000 -1.000000
vn 0.000000 0.000000 -1.000000
vn 0.000000 0.000000 -1.000000
vn 0.000000 0.000000 -1.000000
vn -0.000000 0.000000 1.000000
vn -0.000000 0.000000 1.000000
vn -0.000000 0.000000 1.000000
vn -0.000000 0.000000 1.000000
vn 1.000000 0.000000 0.000003
vn 1.000000 0.000000 0.000003
vn 1.000000 0.000000 0.000003
vn 1.000000 0.000000 0.000003
vn 0.000000 0.000000 -1.000000
vn 0.000000 0.000000 -1.000000
vn -1.000000 0.000000 0.000003
vn -1.000000 0.000000 0.000003
vn -0.000000 0.000000 1.000000
vn -0.000000 0.000000 1.000000
vn 0.000000 -1.000000 0.000000
vn 0.000000 -1.000000 0.000000
vn 0.000000 -1.000000 0.000000
vn 0.000000 -1.000000 0.000000
vn 0.002139 0.000000 -0.999998
vn 0.002139 0.000000 -0.999998
vn 0.002139 0.000000 -0.999998
vn 0.002139 0.000000 -0.999998
vn 0.000000 1.000000 0.000000
vn 0.000000 1.000000 0.000000
vn 0.000000 1.000000 0.000000
vn 0.000000 1.000000 0.000000
vn -0.002139 0.000000 0.999998
vn -0.002139 0.000000 0.999998
vn -0.002139 0.000000 0.999998
vn -0.002139 0.000000 0.999998
s off
g single_door_frame
usemtl anisotropic1SG
f 3/3/1 4/4/2 6/6/3 5/5/4
s 1
f 5/5/5 6/6/6 11/17/7 12/20/8
s off
f 7/7/9 8/8/10 2/10/11 1/9/12
s 2
f 10/16/13 11/18/14 6/12/15 4/4/16
s 3
f 12/19/17 9/15/18 3/3/19 5/14/20
s off
f 1/1/21 2/2/22 10/16/23 9/15/24
s 2
f 2/2/25 8/11/26 11/18/14 10/16/13
s 1
f 12/20/8 11/17/7 8/8/27 7/7/28
s 3
f 7/13/29 1/1/30 9/15/18 12/19/17
s off
f 9/15/31 10/16/32 14/22/33 13/21/34
f 10/16/35 4/4/36 15/23/37 14/22/38
f 4/4/39 3/3/40 16/24/41 15/23/42
f 3/3/43 9/15/44 13/21/45 16/24/46
f 19/25/47 20/26/48 22/27/49 21/28/50
s 4
f 21/28/51 22/27/52 27/29/53 28/30/54
s off
f 23/31/55 24/32/56 18/33/57 17/34/58
s 5
f 26/35/59 27/36/60 22/37/61 20/26/62
s 6
f 28/38/63 25/39/64 19/25/65 21/40/66
s off
f 17/41/67 18/42/68 26/35/69 25/39/70
s 5
f 18/42/71 24/43/72 27/36/60 26/35/59
s 4
f 28/30/54 27/29/53 24/32/73 23/31/74
s 6
f 23/44/75 17/41/76 25/39/64 28/38/63
s off
f 25/39/77 26/35/78 13/45/79 14/46/80
f 26/35/81 20/26/82 16/47/83 13/45/84
f 20/26/85 19/25/86 15/48/87 16/47/88
f 19/25/89 25/39/90 14/46/91 15/48/92
