# This file uses centimeters as units for non-parametric coordinates.

mtllib large_pipe_straight.mtl
g default
v 0.000000 -0.774013 -0.562355
v 0.000000 -0.295647 -0.909904
v 0.000000 0.295647 -0.909904
v 0.000000 0.774014 -0.562355
v 0.000000 0.956734 0.000000
v 0.000000 0.774014 0.562355
v 0.000000 0.295647 0.909904
v 0.000000 -0.295647 0.909904
v 0.000000 -0.774013 0.562355
v 0.000000 -0.956733 0.000000
v 1.263206 -0.774013 -0.562355
v 1.055367 -0.774013 -0.562355
v 1.263206 -0.295647 -0.909904
v 1.055367 -0.295647 -0.909904
v 1.263206 0.295647 -0.909904
v 1.055367 0.295647 -0.909904
v 1.263206 0.774014 -0.562355
v 1.055367 0.774014 -0.562355
v 1.263206 0.956734 0.000000
v 1.055367 0.956734 0.000000
v 1.263206 0.774014 0.562355
v 1.055367 0.774014 0.562355
v 1.263206 0.295647 0.909904
v 1.055367 0.295647 0.909904
v 1.263206 -0.295647 0.909904
v 1.055367 -0.295647 0.909904
v 1.263206 -0.774013 0.562355
v 1.055367 -0.774013 0.562355
v 1.263206 -0.956733 0.000000
v 1.055367 -0.956733 0.000000
v 1.153450 -0.850948 -0.618248
v 1.153450 -0.325033 -1.000343
v 1.153450 0.325034 -1.000343
v 1.153450 0.850949 -0.618248
v 1.153450 1.051830 0.000000
v 1.153450 0.850949 0.618248
v 1.153450 0.325033 1.000343
v 1.153450 -0.325033 1.000343
v 1.153450 -0.850948 0.618248
v 1.153450 -1.051830 0.000000
v 1.672432 -0.774013 -0.562355
v 1.672432 -0.295647 -0.909904
v 1.672432 0.295647 -0.909904
v 1.672432 0.774014 -0.562355
v 1.672432 0.956734 0.000000
v 1.672432 0.774014 0.562355
v 1.672432 0.295647 0.909904
v 1.672432 -0.295647 0.909904
v 1.672432 -0.774013 0.562355
v 1.672432 -0.956733 0.000000
v 2.191414 -1.051830 0.000000
v 2.191414 -0.850948 -0.618248
v 2.081657 -0.774013 -0.562355
v 2.081657 -0.956733 0.000000
v 2.191414 -0.325033 -1.000343
v 2.081657 -0.295647 -0.909904
v 2.191414 0.325034 -1.000343
v 2.081657 0.295647 -0.909904
v 2.191414 0.850949 -0.618248
v 2.081657 0.774014 -0.562355
v 2.191414 1.051830 0.000000
v 2.081657 0.956734 0.000000
v 2.191414 0.850949 0.618248
v 2.081657 0.774014 0.562355
v 2.191414 0.325033 1.000343
v 2.081657 0.295647 0.909904
v 2.191414 -0.325033 1.000343
v 2.081657 -0.295647 0.909904
v 2.191414 -0.850948 0.618248
v 2.081657 -0.774013 0.562355
v 3.344864 -0.774013 -0.562355
v 3.344864 -0.295647 -0.909904
v 2.289497 -0.295647 -0.909904
v 2.289497 -0.774013 -0.562355
v 3.344864 0.295647 -0.909904
v 2.289497 0.295647 -0.909904
v 3.344864 0.774014 -0.562355
v 2.289497 0.774014 -0.562355
v 3.344864 0.956734 0.000000
v 2.289497 0.956734 0.000000
v 3.344864 0.774014 0.562355
v 2.289497 0.774014 0.562355
v 3.344864 0.295647 0.909904
v 2.289497 0.295647 0.909904
v 3.344864 -0.295647 0.909904
v 2.289497 -0.295647 0.909904
v 3.344864 -0.774013 0.562355
v 2.289497 -0.774013 0.562355
v 3.344864 -0.956733 0.000000
v 2.289497 -0.956733 0.000000
vt 0.375000 0.312500
vt 0.400000 0.312500
vt 0.425000 0.312500
vt 0.450000 0.312500
vt 0.475000 0.312500
vt 0.500000 0.312500
vt 0.525000 0.312500
vt 0.550000 0.312500
vt 0.575000 0.312500
vt 0.600000 0.312500
vt 0.625000 0.312500
vt 0.375000 0.446768
vt 0.625000 0.446768
vt 0.625000 0.393068
vt 0.375000 0.393068
vt 0.400000 0.454845
vt 0.400000 0.397195
vt 0.425000 0.460165
vt 0.425000 0.400316
vt 0.450000 0.463294
vt 0.450000 0.402327
vt 0.475000 0.464909
vt 0.475000 0.403419
vt 0.500000 0.465405
vt 0.500000 0.403762
vt 0.525000 0.464909
vt 0.525000 0.403419
vt 0.550000 0.463294
vt 0.550000 0.402327
vt 0.575000 0.460165
vt 0.575000 0.400316
vt 0.600000 0.454845
vt 0.600000 0.397195
vt 0.625000 0.419918
vt 0.375000 0.419918
vt 0.400000 0.426020
vt 0.425000 0.430240
vt 0.450000 0.432811
vt 0.475000 0.434164
vt 0.500000 0.434584
vt 0.525000 0.434164
vt 0.550000 0.432811
vt 0.575000 0.430240
vt 0.600000 0.426020
vt 0.625000 0.468249
vt 0.375000 0.468249
vt 0.400000 0.478954
vt 0.425000 0.484938
vt 0.450000 0.488258
vt 0.475000 0.489931
vt 0.500000 0.490441
vt 0.525000 0.489931
vt 0.550000 0.488258
vt 0.575000 0.484938
vt 0.600000 0.478954
vt 0.600000 0.426020
vt 0.625000 0.419918
vt 0.625000 0.446768
vt 0.600000 0.454845
vt 0.375000 0.446768
vt 0.375000 0.419918
vt 0.400000 0.426020
vt 0.400000 0.454845
vt 0.425000 0.430240
vt 0.425000 0.460165
vt 0.450000 0.432811
vt 0.450000 0.463294
vt 0.475000 0.434164
vt 0.475000 0.464909
vt 0.500000 0.434584
vt 0.500000 0.465405
vt 0.525000 0.434164
vt 0.525000 0.464909
vt 0.550000 0.432811
vt 0.550000 0.463294
vt 0.575000 0.430240
vt 0.575000 0.460165
vt 0.375000 0.312500
vt 0.400000 0.312500
vt 0.400000 0.397195
vt 0.375000 0.393068
vt 0.425000 0.312500
vt 0.425000 0.400316
vt 0.450000 0.312500
vt 0.450000 0.402327
vt 0.475000 0.312500
vt 0.475000 0.403419
vt 0.500000 0.312500
vt 0.500000 0.403762
vt 0.525000 0.312500
vt 0.525000 0.403419
vt 0.550000 0.312500
vt 0.550000 0.402327
vt 0.575000 0.312500
vt 0.575000 0.400316
vt 0.600000 0.312500
vt 0.600000 0.397195
vt 0.625000 0.312500
vt 0.625000 0.393068
vt 0.400000 0.478954
vt 0.375000 0.468249
vt 0.425000 0.484938
vt 0.450000 0.488258
vt 0.475000 0.489931
vt 0.500000 0.490441
vt 0.525000 0.489931
vt 0.550000 0.488258
vt 0.575000 0.484938
vt 0.600000 0.478954
vt 0.625000 0.468249
vn 0.004169 -0.951048 -0.309014
vn 0.004168 -0.951048 -0.309014
vn 0.195022 -0.932795 -0.303083
vn 0.195023 -0.932795 -0.303083
vn 0.195021 -0.576495 -0.793486
vn 0.004169 -0.587776 -0.809013
vn 0.004169 -0.587775 -0.809013
vn 0.195018 -0.576495 -0.793487
vn 0.195018 0.000000 -0.980800
vn 0.004169 0.000000 -0.999991
vn 0.004169 0.000000 -0.999991
vn 0.195018 0.000000 -0.980800
vn 0.195018 0.576495 -0.793487
vn 0.004168 0.587775 -0.809013
vn 0.004169 0.587775 -0.809013
vn 0.195021 0.576495 -0.793487
vn 0.195022 0.932796 -0.303083
vn 0.004168 0.951048 -0.309014
vn 0.004169 0.951048 -0.309014
vn 0.195023 0.932795 -0.303083
vn 0.195023 0.932795 0.303083
vn 0.004169 0.951048 0.309015
vn 0.004168 0.951048 0.309015
vn 0.195022 0.932795 0.303084
vn 0.195021 0.576495 0.793486
vn 0.004169 0.587776 0.809013
vn 0.004169 0.587776 0.809013
vn 0.195018 0.576495 0.793487
vn 0.195018 0.000000 0.980800
vn 0.004169 0.000000 0.999991
vn 0.004169 0.000000 0.999991
vn 0.195018 0.000000 0.980800
vn 0.195018 -0.576495 0.793487
vn 0.004169 -0.587776 0.809013
vn 0.004169 -0.587776 0.809013
vn 0.195021 -0.576495 0.793486
vn 0.195022 -0.932795 0.303083
vn 0.004168 -0.951048 0.309015
vn 0.004169 -0.951048 0.309015
vn 0.195024 -0.932795 0.303083
vn 0.000000 -0.587780 -0.809021
vn 0.000000 -0.587780 -0.809021
vn -0.091750 -0.585301 -0.805608
vn -0.091752 -0.585301 -0.805608
vn 0.000000 0.000000 -1.000000
vn 0.000000 0.000000 -1.000000
vn -0.091750 0.000000 -0.995782
vn -0.091750 0.000000 -0.995782
vn 0.000000 0.587780 -0.809021
vn 0.000000 0.587780 -0.809021
vn -0.091752 0.585301 -0.805608
vn -0.091750 0.585301 -0.805608
vn 0.000000 0.951057 -0.309016
vn 0.000000 0.951057 -0.309016
vn -0.091753 0.947045 -0.307713
vn -0.091752 0.947045 -0.307713
vn 0.000000 0.951057 0.309017
vn 0.000000 0.951057 0.309017
vn -0.091752 0.947045 0.307714
vn -0.091753 0.947045 0.307714
vn 0.000000 0.587781 0.809020
vn 0.000000 0.587781 0.809020
vn -0.091750 0.585302 0.805608
vn -0.091752 0.585301 0.805608
vn 0.000000 0.000000 1.000000
vn 0.000000 0.000000 1.000000
vn -0.091750 0.000000 0.995782
vn -0.091750 0.000000 0.995782
vn 0.000000 -0.587781 0.809020
vn 0.000000 -0.587781 0.809020
vn -0.091752 -0.585301 0.805608
vn -0.091750 -0.585301 0.805608
vn 0.000000 -0.951057 0.309016
vn 0.000000 -0.951057 0.309016
vn -0.091753 -0.947045 0.307713
vn -0.091752 -0.947045 0.307713
vn 0.000000 -0.951057 -0.309016
vn 0.000000 -0.951057 -0.309016
vn -0.091752 -0.947045 -0.307713
vn -0.091753 -0.947045 -0.307713
vn 0.000000 -0.587781 -0.809020
vn 0.000000 -0.587781 -0.809020
vn 0.000000 0.000000 -1.000000
vn 0.000000 0.000000 -1.000000
vn 0.000000 0.587780 -0.809021
vn 0.000000 0.587780 -0.809021
vn 0.000000 0.951057 -0.309016
vn 0.000000 0.951057 -0.309016
vn 0.000000 0.951057 0.309017
vn 0.000000 0.951057 0.309017
vn 0.000000 0.587781 0.809020
vn 0.000000 0.587781 0.809020
vn 0.000000 0.000000 1.000000
vn 0.000000 0.000000 1.000000
vn 0.000000 -0.587781 0.809020
vn 0.000000 -0.587781 0.809020
vn 0.000000 -0.951057 0.309016
vn 0.000000 -0.951057 0.309016
vn 0.000000 -0.951057 -0.309016
vn 0.000000 -0.951057 -0.309016
vn -0.004169 -0.951048 -0.309015
vn -0.195024 -0.932795 -0.303083
vn -0.195022 -0.932795 -0.303083
vn -0.004169 -0.951048 -0.309015
vn -0.195021 -0.576495 -0.793487
vn -0.195018 -0.576495 -0.793487
vn -0.004169 -0.587776 -0.809013
vn -0.004169 -0.587776 -0.809013
vn -0.195018 0.000000 -0.980800
vn -0.195018 0.000000 -0.980800
vn -0.004169 0.000000 -0.999991
vn -0.004169 0.000000 -0.999991
vn -0.195018 0.576495 -0.793487
vn -0.195021 0.576494 -0.793487
vn -0.004169 0.587775 -0.809013
vn -0.004168 0.587776 -0.809013
vn -0.195022 0.932795 -0.303083
vn -0.195023 0.932795 -0.303083
vn -0.004169 0.951048 -0.309014
vn -0.004168 0.951048 -0.309014
vn -0.195024 0.932795 0.303084
vn -0.195022 0.932795 0.303084
vn -0.004168 0.951048 0.309015
vn -0.004169 0.951048 0.309015
vn -0.195021 0.576495 0.793486
vn -0.195018 0.576495 0.793487
vn -0.004168 0.587776 0.809013
vn -0.004169 0.587776 0.809013
vn -0.195018 0.000000 0.980800
vn -0.195018 0.000000 0.980800
vn -0.004169 0.000000 0.999991
vn -0.004169 0.000000 0.999991
vn -0.195018 -0.576495 0.793487
vn -0.195021 -0.576495 0.793487
vn -0.004169 -0.587776 0.809013
vn -0.004169 -0.587776 0.809013
vn -0.195022 -0.932795 0.303083
vn -0.195024 -0.932795 0.303083
vn -0.004169 -0.951048 0.309014
vn -0.004168 -0.951048 0.309015
vn -0.000000 -0.587781 -0.809020
vn 0.091752 -0.585301 -0.805608
vn 0.091750 -0.585301 -0.805608
vn -0.000000 -0.587781 -0.809020
vn 0.000000 0.000000 -1.000000
vn 0.091750 0.000000 -0.995782
vn 0.091750 0.000000 -0.995782
vn 0.000000 0.000000 -1.000000
vn 0.000000 0.587780 -0.809021
vn 0.091750 0.585301 -0.805608
vn 0.091752 0.585301 -0.805608
vn 0.000000 0.587780 -0.809021
vn 0.000000 0.951057 -0.309016
vn 0.091752 0.947045 -0.307713
vn 0.091753 0.947045 -0.307713
vn 0.000000 0.951057 -0.309016
vn 0.000000 0.951057 0.309017
vn 0.091753 0.947045 0.307713
vn 0.091752 0.947045 0.307714
vn 0.000000 0.951057 0.309017
vn 0.000000 0.587781 0.809020
vn 0.091752 0.585301 0.805608
vn 0.091750 0.585302 0.805608
vn 0.000000 0.587781 0.809020
vn 0.000000 0.000000 1.000000
vn 0.091750 0.000000 0.995782
vn 0.091750 0.000000 0.995782
vn 0.000000 0.000000 1.000000
vn 0.000000 -0.587781 0.809020
vn 0.091750 -0.585301 0.805608
vn 0.091752 -0.585301 0.805608
vn 0.000000 -0.587781 0.809020
vn 0.000000 -0.951057 0.309016
vn 0.091752 -0.947045 0.307713
vn 0.091753 -0.947045 0.307713
vn 0.000000 -0.951057 0.309016
vn 0.000000 -0.951057 -0.309016
vn 0.091753 -0.947045 -0.307713
vn 0.091752 -0.947045 -0.307713
vn 0.000000 -0.951057 -0.309016
vn 0.000000 -0.587780 -0.809021
vn 0.000000 -0.587780 -0.809021
vn 0.000000 0.000000 -1.000000
vn 0.000000 0.000000 -1.000000
vn 0.000000 0.587780 -0.809021
vn 0.000000 0.587780 -0.809021
vn 0.000000 0.951057 -0.309016
vn 0.000000 0.951057 -0.309016
vn 0.000000 0.951057 0.309017
vn 0.000000 0.951057 0.309017
vn 0.000000 0.587781 0.809020
vn 0.000000 0.587781 0.809020
vn 0.000000 0.000000 1.000000
vn 0.000000 0.000000 1.000000
vn -0.000000 -0.587781 0.809020
vn -0.000000 -0.587780 0.809021
vn -0.000000 -0.951057 0.309016
vn -0.000000 -0.951057 0.309016
vn 0.000000 -0.951057 -0.309016
vn 0.000000 -0.951057 -0.309016
s 1
g pipe_large_straight
usemtl anisotropic1SG
f 40/44/1 31/34/2 11/13/3 29/32/4
s 2
f 11/12/5 31/35/6 32/36/7 13/16/8
s 3
f 13/16/9 32/36/10 33/37/11 15/18/12
s 4
f 15/18/13 33/37/14 34/38/15 17/20/16
s 5
f 17/20/17 34/38/18 35/39/19 19/22/20
s 6
f 19/22/21 35/39/22 36/40/23 21/24/24
s 7
f 21/24/25 36/40/26 37/41/27 23/26/28
s 8
f 23/26/29 37/41/30 38/42/31 25/28/32
s 9
f 25/28/33 38/42/34 39/43/35 27/30/36
s 10
f 27/30/37 39/43/38 40/44/39 29/32/40
s 2
f 1/1/41 2/2/42 14/17/43 12/15/44
s 3
f 2/2/45 3/3/46 16/19/47 14/17/48
s 4
f 3/3/49 4/4/50 18/21/51 16/19/52
s 5
f 4/4/53 5/5/54 20/23/55 18/21/56
s 6
f 5/5/57 6/6/58 22/25/59 20/23/60
s 7
f 6/6/61 7/7/62 24/27/63 22/25/64
s 8
f 7/7/65 8/8/66 26/29/67 24/27/68
s 9
f 8/8/69 9/9/70 28/31/71 26/29/72
s 10
f 9/9/73 10/10/74 30/33/75 28/31/76
s 1
f 10/10/77 1/11/78 12/14/79 30/33/80
s 2
f 32/36/7 31/35/6 12/15/44 14/17/43
s 3
f 33/37/11 32/36/10 14/17/48 16/19/47
s 4
f 34/38/15 33/37/14 16/19/52 18/21/51
s 5
f 35/39/19 34/38/18 18/21/56 20/23/55
s 6
f 36/40/23 35/39/22 20/23/60 22/25/59
s 7
f 37/41/27 36/40/26 22/25/64 24/27/63
s 8
f 38/42/31 37/41/30 24/27/68 26/29/67
s 9
f 39/43/35 38/42/34 26/29/72 28/31/71
s 10
f 40/44/39 39/43/38 28/31/76 30/33/75
s 1
f 12/14/79 31/34/2 40/44/1 30/33/80
s 2
f 42/47/81 41/46/82 11/12/5 13/16/8
s 3
f 43/48/83 42/47/84 13/16/9 15/18/12
s 4
f 44/49/85 43/48/86 15/18/13 17/20/16
s 5
f 45/50/87 44/49/88 17/20/17 19/22/20
s 6
f 46/51/89 45/50/90 19/22/21 21/24/24
s 7
f 47/52/91 46/51/92 21/24/25 23/26/28
s 8
f 48/53/93 47/52/94 23/26/29 25/28/32
s 9
f 49/54/95 48/53/96 25/28/33 27/30/36
s 10
f 50/55/97 49/54/98 27/30/37 29/32/40
s 1
f 11/13/3 41/45/99 50/55/100 29/32/4
s 11
f 51/56/101 54/59/102 53/58/103 52/57/104
s 12
f 53/60/105 56/63/106 55/62/107 52/61/108
s 13
f 56/63/109 58/65/110 57/64/111 55/62/112
s 14
f 58/65/113 60/67/114 59/66/115 57/64/116
s 15
f 60/67/117 62/69/118 61/68/119 59/66/120
s 16
f 62/69/121 64/71/122 63/70/123 61/68/124
s 17
f 64/71/125 66/73/126 65/72/127 63/70/128
s 18
f 66/73/129 68/75/130 67/74/131 65/72/132
s 19
f 68/75/133 70/77/134 69/76/135 67/74/136
s 20
f 70/77/137 54/59/138 51/56/139 69/76/140
s 12
f 71/78/141 74/81/142 73/80/143 72/79/144
s 13
f 72/79/145 73/80/146 76/83/147 75/82/148
s 14
f 75/82/149 76/83/150 78/85/151 77/84/152
s 15
f 77/84/153 78/85/154 80/87/155 79/86/156
s 16
f 79/86/157 80/87/158 82/89/159 81/88/160
s 17
f 81/88/161 82/89/162 84/91/163 83/90/164
s 18
f 83/90/165 84/91/166 86/93/167 85/92/168
s 19
f 85/92/169 86/93/170 88/95/171 87/94/172
s 20
f 87/94/173 88/95/174 90/97/175 89/96/176
s 11
f 89/96/177 90/97/178 74/99/179 71/98/180
s 12
f 55/62/107 73/80/143 74/81/142 52/61/108
s 13
f 57/64/111 76/83/147 73/80/146 55/62/112
s 14
f 59/66/115 78/85/151 76/83/150 57/64/116
s 15
f 61/68/119 80/87/155 78/85/154 59/66/120
s 16
f 63/70/123 82/89/159 80/87/158 61/68/124
s 17
f 65/72/127 84/91/163 82/89/162 63/70/128
s 18
f 67/74/131 86/93/167 84/91/166 65/72/132
s 19
f 69/76/135 88/95/171 86/93/170 67/74/136
s 20
f 51/56/139 90/97/175 88/95/174 69/76/140
s 11
f 74/99/179 90/97/178 51/56/101 52/57/104
s 12
f 42/100/181 56/63/106 53/60/105 41/101/182
s 13
f 43/102/183 58/65/110 56/63/109 42/100/184
s 14
f 44/103/185 60/67/114 58/65/113 43/102/186
s 15
f 45/104/187 62/69/118 60/67/117 44/103/188
s 16
f 46/105/189 64/71/122 62/69/121 45/104/190
s 17
f 47/106/191 66/73/126 64/71/125 46/105/192
s 18
f 48/107/193 68/75/130 66/73/129 47/106/194
s 19
f 49/108/195 70/77/134 68/75/133 48/107/196
s 20
f 50/109/197 54/59/138 70/77/137 49/108/198
s 11
f 53/58/103 54/59/102 50/109/199 41/110/200
