# This file uses centimeters as units for non-parametric coordinates.

mtllib large_metal_support.mtl
g default
v -10.336113 -0.180044 -0.714466
v 0.000000 -0.180044 -0.714466
v 0.000000 -0.125125 -0.522251
v -10.336113 -0.125125 -0.522251
v 0.000000 -0.125125 -0.714466
v -10.336113 -0.125125 -0.714466
v -10.336113 -0.180044 -0.522251
v 0.000000 -0.180044 -0.522251
v 0.000000 -0.125125 0.000088
v -10.336113 -0.125125 0.000088
v 0.000000 -0.125125 0.714642
v -10.336113 -0.125125 0.714642
v -10.336113 -0.180044 0.522427
v 0.000000 -0.180044 0.522427
v 0.000000 -0.125125 0.522427
v -10.336113 -0.125125 0.522427
v 0.000000 -0.180044 0.714642
v -10.336113 -0.180044 0.714642
v -10.336113 0.006495 0.714642
v 0.000000 0.006495 0.714642
v 0.000000 0.006495 -0.714466
v -10.336113 0.006495 -0.714466
v -10.336113 0.193035 -0.522251
v 0.000000 0.193035 -0.522251
v 0.000000 0.138116 -0.522251
v -10.336113 0.138116 -0.522251
v 0.000000 0.138116 -0.714466
v 0.000000 0.193035 -0.714466
v -10.336113 0.138116 -0.714466
v -10.336113 0.193035 -0.714466
v 0.000000 0.138116 0.000088
v -10.336113 0.138116 0.000088
v -10.336113 0.193035 0.522427
v -10.336113 0.138116 0.522427
v 0.000000 0.138116 0.522427
v 0.000000 0.193035 0.522427
v 0.000000 0.138116 0.714642
v 0.000000 0.193035 0.714642
v -10.336113 0.138116 0.714642
v -10.336113 0.193035 0.714642
vt 0.375000 0.750000
vt 0.625000 0.750000
vt 0.625000 0.783629
vt 0.375000 0.783629
vt 0.625000 0.711871
vt 0.375000 0.711871
vt 0.375000 0.764973
vt 0.625000 0.764973
vt 0.625000 0.875013
vt 0.375000 0.875013
vt 0.625000 0.711871
vt 0.375000 0.711871
vt 0.375000 0.764973
vt 0.625000 0.764973
vt 0.625000 0.783629
vt 0.375000 0.783629
vt 0.625000 0.750000
vt 0.375000 0.750000
vt 0.625000 0.875013
vt 0.375000 0.875013
vt 0.375000 0.620491
vt 0.625000 0.620491
vt 0.625000 0.620491
vt 0.375000 0.620491
vt 0.375000 0.764973
vt 0.625000 0.764973
vt 0.625000 0.783629
vt 0.375000 0.783629
vt 0.375000 0.711871
vt 0.625000 0.711871
vt 0.625000 0.750000
vt 0.375000 0.750000
vt 0.625000 0.875013
vt 0.375000 0.875013
vt 0.375000 0.764973
vt 0.375000 0.783629
vt 0.625000 0.783629
vt 0.625000 0.764973
vt 0.375000 0.711871
vt 0.375000 0.750000
vt 0.625000 0.750000
vt 0.625000 0.711871
vt 0.375000 0.875013
vt 0.625000 0.875013
vt 0.625000 0.620491
vt 0.375000 0.620491
vt 0.375000 0.620491
vt 0.625000 0.620491
vn 0.000000 -0.961524 0.274722
vn 0.000000 -0.961524 0.274722
vn 0.000000 -0.994518 0.104564
vn 0.000000 -0.994518 0.104564
vn 0.000000 0.000000 -1.000000
vn 0.000000 0.000000 -1.000000
vn 0.000000 0.000000 -1.000000
vn 0.000000 0.000000 -1.000000
vn 0.000000 -1.000000 0.000000
vn 0.000000 -1.000000 0.000000
vn 0.000000 -1.000000 0.000000
vn 0.000000 -1.000000 0.000000
vn 0.000000 -0.961524 -0.274722
vn 0.000000 -0.994518 -0.104564
vn 0.000000 -0.994518 -0.104564
vn 0.000000 -0.961524 -0.274722
vn 0.000000 0.000000 1.000000
vn 0.000000 0.000000 1.000000
vn 0.000000 0.000000 1.000000
vn 0.000000 0.000000 1.000000
vn 0.000000 -1.000000 0.000000
vn 0.000000 -1.000000 0.000000
vn 0.000000 -1.000000 0.000000
vn 0.000000 -1.000000 0.000000
vn 0.000000 0.000000 1.000000
vn 0.000000 0.000000 1.000000
vn 0.000000 0.000000 -1.000000
vn 0.000000 0.000000 -1.000000
vn 0.000000 0.961524 0.274722
vn 0.000000 0.994518 0.104564
vn 0.000000 0.994518 0.104564
vn 0.000000 0.961524 0.274722
vn 0.000000 0.000000 -1.000000
vn 0.000000 0.000000 -1.000000
vn 0.000000 0.000000 -1.000000
vn 0.000000 0.000000 -1.000000
vn 0.000000 1.000000 0.000000
vn 0.000000 1.000000 0.000000
vn 0.000000 1.000000 0.000000
vn 0.000000 1.000000 0.000000
vn 0.000000 0.961524 -0.274722
vn 0.000000 0.961524 -0.274722
vn 0.000000 0.994518 -0.104564
vn 0.000000 0.994518 -0.104564
vn 0.000000 0.000000 1.000000
vn 0.000000 0.000000 1.000000
vn 0.000000 0.000000 1.000000
vn 0.000000 0.000000 1.000000
vn 0.000000 1.000000 0.000000
vn 0.000000 1.000000 0.000000
vn 0.000000 1.000000 0.000000
vn 0.000000 1.000000 0.000000
vn 0.000000 0.000000 1.000000
vn 0.000000 0.000000 1.000000
vn 0.000000 0.000000 -1.000000
vn 0.000000 0.000000 -1.000000
s 1
g straight_metal_supports
usemtl anisotropic1SG
f 7/7/1 8/8/2 3/3/3 4/4/4
s 2
f 6/6/5 5/5/6 2/2/7 1/1/8
s 1
f 1/1/9 2/2/10 8/8/2 7/7/1
f 4/4/4 3/3/3 9/9/11 10/10/12
s 3
f 13/13/13 16/16/14 15/15/15 14/14/16
s 4
f 12/12/17 18/18/18 17/17/19 11/11/20
s 3
f 18/18/21 13/13/13 14/14/16 17/17/22
f 16/16/14 10/20/23 9/19/24 15/15/15
s 4
f 20/22/25 19/21/26 12/12/17 11/11/20
s 2
f 22/24/27 21/23/28 5/5/6 6/6/5
s 5
f 23/25/29 26/28/30 25/27/31 24/26/32
s 6
f 29/29/33 30/32/34 28/31/35 27/30/36
s 5
f 30/32/37 23/25/29 24/26/32 28/31/38
f 26/28/30 32/34/39 31/33/40 25/27/31
s 7
f 33/35/41 36/38/42 35/37/43 34/36/44
s 8
f 39/39/45 37/42/46 38/41/47 40/40/48
s 7
f 40/40/49 38/41/50 36/38/42 33/35/41
f 34/36/44 35/37/43 31/44/51 32/43/52
s 8
f 20/45/53 37/42/46 39/39/45 19/46/54
s 6
f 22/47/55 29/29/33 27/30/36 21/48/56
