# This file uses centimeters as units for non-parametric coordinates.

mtllib living_quarters_room.mtl
g default
v 17.941002 -0.000000 4.780388
v 17.941002 -0.000000 29.975487
v 17.941002 7.658743 4.780388
v 17.941002 7.658743 29.975487
v 17.941002 5.000000 4.780388
v 17.941002 5.000000 0.000000
v 17.941002 7.658743 0.000000
vt 0.000000 0.000000
vt 1.000000 0.000000
vt 1.000000 0.348598
vt 0.000000 0.348598
vt 0.000000 0.253861
vt 0.000000 0.000000
vt 1.000000 0.000000
vt 1.000000 1.000000
vt 0.000000 1.000000
vn -1.000000 0.000000 0.000000
vn -1.000000 0.000000 0.000000
vn -1.000000 0.000000 0.000000
vn -1.000000 0.000000 0.000000
vn -1.000000 0.000000 0.000000
vn -1.000000 0.000000 0.000000
vn -1.000000 0.000000 0.000000
vn -1.000000 0.000000 0.000000
vn -1.000000 0.000000 0.000000
s off
g living_quarters_room_walls1 living_quarters_room
usemtl anisotropic1SG
f 1/1/1 2/2/2 4/3/3 3/4/4 5/5/5
f 5/6/6 3/7/7 7/8/8 6/9/9
g default
v 17.941002 -0.000000 -29.975479
v 17.941002 -0.000000 -4.691109
v 17.941002 7.658743 -29.975479
v 17.941002 7.658743 -4.691109
v 17.941002 5.000000 -4.691109
v 17.941002 5.000000 0.000008
v 17.941002 7.658743 0.000008
vt 0.000000 0.000000
vt 1.000000 0.000000
vt 1.000000 0.252556
vt 1.000000 0.348598
vt 0.000000 0.348598
vt 0.000000 0.000000
vt 1.000000 0.000000
vt 1.000000 1.000000
vt 0.000000 1.000000
vn -1.000000 0.000000 0.000000
vn -1.000000 0.000000 0.000000
vn -1.000000 0.000000 0.000000
vn -1.000000 0.000000 0.000000
vn -1.000000 0.000000 0.000000
vn -1.000000 0.000000 0.000000
vn -1.000000 0.000000 0.000000
vn -1.000000 0.000000 0.000000
vn -1.000000 0.000000 0.000000
s off
g living_quarters_room living_quarters_room_walls2
usemtl anisotropic1SG
f 8/10/10 9/11/11 12/12/12 11/13/13 10/14/14
f 11/15/15 12/16/16 13/17/17 14/18/18
g default
v -17.940994 0.000000 29.975494
v 17.940994 0.000000 29.975494
v -17.940994 0.000000 -29.975483
v 17.940994 0.000000 -29.975483
v -2.971687 0.000000 0.000008
v 17.940994 0.000000 0.000008
v -17.940994 0.000000 19.932114
v -17.940994 0.000000 8.993248
v -2.971687 0.000000 8.993248
v 17.940994 0.000000 8.993248
v 17.940994 0.000000 19.932114
v -2.971687 0.000000 -8.993244
v -17.940994 0.000000 -8.993244
v -17.940994 0.000000 -20.982235
v 17.940994 0.000000 -20.982235
v 17.940994 0.000000 -8.993244
vt -0.000000 0.849990
vt 0.617858 0.799995
vt 0.617858 1.000000
vt 0.000000 1.000000
vt -0.000000 0.349990
vt 0.617858 0.349990
vt 0.617858 0.500000
vt 0.000000 0.500000
vt 0.000000 0.000000
vt 0.617858 0.000000
vt 0.617858 0.200005
vt -0.000000 0.150010
vt 0.617858 0.650010
vt -0.000000 0.650010
vt -0.000000 0.250000
vt -0.000000 0.750000
vn 0.000000 1.000000 0.000000
vn 0.000000 1.000000 0.000000
vn 0.000000 1.000000 0.000000
vn 0.000000 1.000000 0.000000
vn 0.000000 1.000000 0.000000
vn 0.000000 1.000000 0.000000
vn 0.000000 1.000000 0.000000
vn 0.000000 1.000000 0.000000
vn 0.000000 1.000000 0.000000
vn 0.000000 1.000000 0.000000
vn 0.000000 1.000000 0.000000
vn 0.000000 1.000000 0.000000
vn 0.000000 1.000000 0.000000
vn 0.000000 1.000000 0.000000
vn 0.000000 1.000000 0.000000
vn 0.000000 1.000000 0.000000
s 1
g living_quarters_room living_quarters_room_floor
usemtl anisotropic1SG
f 28/19/19 29/20/20 18/21/21 17/22/22
f 23/23/23 24/24/24 20/25/25 19/26/26
f 15/27/27 16/28/28 25/29/29 21/30/30
f 19/26/26 20/25/25 30/31/31 26/32/32
f 23/23/23 22/33/33 25/29/29 24/24/24
f 22/33/33 21/30/30 25/29/29
f 28/19/19 27/34/34 29/20/20
f 27/34/34 26/32/32 30/31/31 29/20/20
g default
v -2.971695 -0.000000 8.993248
v -2.971695 -0.000000 -8.993244
v -2.971695 7.658744 8.993248
v -2.971695 7.658744 -8.993244
vt 0.000000 0.000000
vt 1.000000 0.000000
vt 1.000000 0.348598
vt 0.000000 0.348598
vn 1.000000 0.000000 0.000000
vn 1.000000 0.000000 0.000000
vn 1.000000 0.000000 0.000000
vn 1.000000 0.000000 0.000000
s off
g living_quarters_room living_quarters_room_walls3
usemtl anisotropic1SG
f 31/35/35 32/36/36 34/37/37 33/38/38
g default
v -17.940994 -0.000000 -8.993244
v -17.940994 -0.000000 -29.975491
v -17.940994 7.658744 -8.993244
v -17.940994 7.658744 -29.975491
vt 0.000000 0.000000
vt 1.000000 0.000000
vt 1.000000 0.348598
vt 0.000000 0.348598
vn 1.000000 0.000000 0.000000
vn 1.000000 0.000000 0.000000
vn 1.000000 0.000000 0.000000
vn 1.000000 0.000000 0.000000
s off
g living_quarters_room living_quarters_room_walls4
usemtl anisotropic1SG
f 35/39/39 36/40/40 38/41/41 37/42/42
g default
v -2.971695 -0.000000 -8.993244
v -17.940994 -0.000000 -8.993244
v -2.971695 7.658743 -8.993244
v -17.940994 7.658743 -8.993244
vt 0.000000 0.000000
vt 1.000000 0.000000
vt 1.000000 0.348598
vt 0.000000 0.348598
vn 0.000000 0.000000 -1.000000
vn 0.000000 0.000000 -1.000000
vn 0.000000 0.000000 -1.000000
vn 0.000000 0.000000 -1.000000
s off
g living_quarters_room living_quarters_room_walls5
usemtl anisotropic1SG
f 39/43/43 40/44/44 42/45/45 41/46/46
g default
v -17.941002 -0.000000 -29.975483
v 17.940994 -0.000000 -29.975483
v -17.941002 7.658742 -29.975483
v 17.940994 7.658742 -29.975483
vt 0.000000 0.000000
vt 1.000000 0.000000
vt 1.000000 0.348598
vt 0.000000 0.348598
vn 0.000000 0.000000 1.000000
vn 0.000000 0.000000 1.000000
vn 0.000000 0.000000 1.000000
vn 0.000000 0.000000 1.000000
s off
g living_quarters_room living_quarters_room_walls6
usemtl anisotropic1SG
f 43/47/47 44/48/48 46/49/49 45/50/50
g default
v -17.941002 -0.000000 8.993248
v -2.971695 -0.000000 8.993248
v -17.941002 7.658742 8.993248
v -2.971695 7.658742 8.993248
vt 0.000000 0.000000
vt 1.000000 0.000000
vt 1.000000 0.348598
vt 0.000000 0.348598
vn 0.000000 0.000000 1.000000
vn 0.000000 0.000000 1.000000
vn 0.000000 0.000000 1.000000
vn 0.000000 0.000000 1.000000
s off
g living_quarters_room living_quarters_room_walls7
usemtl anisotropic1SG
f 47/51/51 48/52/52 50/53/53 49/54/54
g default
v -17.940994 -0.000000 29.975494
v -17.940994 -0.000000 8.993248
v -17.940994 7.658744 29.975494
v -17.940994 7.658744 8.993248
vt 0.000000 0.000000
vt 1.000000 0.000000
vt 1.000000 0.348598
vt 0.000000 0.348598
vn 1.000000 0.000000 0.000000
vn 1.000000 0.000000 0.000000
vn 1.000000 0.000000 0.000000
vn 1.000000 0.000000 0.000000
s off
g living_quarters_room living_quarters_room_walls8
usemtl anisotropic1SG
f 51/55/55 52/56/56 54/57/57 53/58/58
g default
v 17.941002 -0.000000 29.975494
v -17.940994 -0.000000 29.975494
v 17.941002 7.658743 29.975494
v -17.940994 7.658743 29.975494
vt 0.000000 0.000000
vt 1.000000 0.000000
vt 1.000000 0.348598
vt 0.000000 0.348598
vn 0.000000 0.000000 -1.000000
vn 0.000000 0.000000 -1.000000
vn 0.000000 0.000000 -1.000000
vn 0.000000 0.000000 -1.000000
s off
g living_quarters_room living_quarters_room_walls9
usemtl initialShadingGroup
f 55/59/59 56/60/60 58/61/61 57/62/62
g default
v 17.940996 7.658744 29.975487
v -17.940994 7.658744 29.975487
v 17.940996 7.658744 -29.975481
v -17.940994 7.658744 -29.975481
v -17.940994 7.658744 8.993246
v -17.940994 7.658744 -8.993246
v -2.971695 7.658744 8.993245
v -3.003749 7.658744 -8.993246
vt 0.000000 0.000000
vt 0.596947 0.000000
vt 0.000000 1.000000
vt 0.596947 1.000000
vt 0.596947 0.347735
vt 0.596947 0.651683
vt 0.342482 0.349531
vt 0.348445 0.648912
vn 0.000000 -1.000000 0.000000
vn 0.000000 -1.000000 0.000000
vn 0.000000 -1.000000 0.000000
vn 0.000000 -1.000000 0.000000
vn 0.000000 -1.000000 0.000000
vn 0.000000 -1.000000 0.000000
vn 0.000000 -1.000000 0.000000
vn 0.000000 -1.000000 0.000000
s off
g living_quarters_room living_quarters_room_ceiling
usemtl initialShadingGroup
f 59/63/63 60/64/64 63/67/65 65/69/66 66/70/67 64/68/68 62/66/69 61/65/70
