# This file uses centimeters as units for non-parametric coordinates.

mtllib small_pipe_end.mtl
g default
v 0.292768 -0.212708 25.541992
v 0.111828 -0.344170 25.541992
v -0.111827 -0.344170 25.541992
v -0.292768 -0.212708 25.541992
v -0.361881 0.000000 25.541992
v -0.292768 0.212708 25.541992
v -0.111827 0.344173 25.541992
v 0.111828 0.344173 25.541992
v 0.292768 0.212708 25.541992
v 0.361881 0.000000 25.541992
v 0.292768 -0.212708 0.000000
v 0.111828 -0.344170 0.000000
v -0.111827 -0.344170 0.000000
v -0.292768 -0.212708 0.000000
v -0.361881 0.000000 0.000000
v -0.292768 0.212708 0.000000
v -0.111827 0.344173 0.000000
v 0.111828 0.344173 0.000000
v 0.292768 0.212708 0.000000
v 0.361881 0.000000 0.000000
v 0.560658 0.000000 26.033371
v 0.560658 -0.212708 26.102493
v 0.560658 0.212708 26.102493
v 0.560658 0.344173 26.283432
v 0.560658 0.344173 26.507095
v 0.560658 0.212708 26.688034
v 0.560658 0.000000 26.757126
v 0.560658 -0.212708 26.688034
v 0.560658 -0.344170 26.507095
v 0.560658 -0.344170 26.283432
v 2.295959 0.000000 26.033371
v 2.295959 -0.212708 26.102493
v 2.295959 0.212708 26.102493
v 2.295959 0.344173 26.283432
v 2.295959 0.344173 26.507095
v 2.295959 0.212708 26.688034
v 2.295959 0.000000 26.757126
v 2.295959 -0.212708 26.688034
v 2.295959 -0.344170 26.507095
v 2.295959 -0.344170 26.283432
v 0.404875 -0.001350 26.018122
v 0.363125 0.212708 26.072842
v 0.253821 0.344173 26.216082
v 0.118715 0.344173 26.393145
v 0.009411 0.212708 26.536385
v -0.032340 -0.001350 26.591082
v 0.009411 -0.212708 26.536385
v 0.118715 -0.344170 26.393145
v 0.253821 -0.344170 26.216082
v 0.363125 -0.212708 26.072842
v 0.345068 -0.001350 25.870277
v 0.282522 0.212708 25.904198
v 0.118777 0.344173 25.992996
v -0.083622 0.344173 26.102764
v -0.247368 0.212708 26.191565
v -0.309912 -0.001350 26.225471
v -0.247368 -0.212708 26.191565
v -0.083622 -0.344170 26.102764
v 0.118777 -0.344170 25.992996
v 0.282522 -0.212708 25.904198
vt 0.626409 0.064409
vt 0.548284 0.007647
vt 0.451716 0.007647
vt 0.373591 0.064409
vt 0.343750 0.156250
vt 0.373591 0.248091
vt 0.451716 0.304853
vt 0.548284 0.304853
vt 0.626409 0.248091
vt 0.656250 0.156250
vt 0.375000 0.312500
vt 0.400000 0.312500
vt 0.425000 0.312500
vt 0.450000 0.312500
vt 0.475000 0.312500
vt 0.500000 0.312500
vt 0.525000 0.312500
vt 0.550000 0.312500
vt 0.575000 0.312500
vt 0.600000 0.312500
vt 0.625000 0.312500
vt 0.375000 0.688440
vt 0.400000 0.688440
vt 0.425000 0.688440
vt 0.450000 0.688440
vt 0.475000 0.688440
vt 0.500000 0.688440
vt 0.525000 0.688440
vt 0.550000 0.688440
vt 0.575000 0.688440
vt 0.600000 0.688440
vt 0.625000 0.688440
vt 0.626409 0.064409
vt 0.656250 0.156250
vt 0.626409 0.248091
vt 0.548284 0.304853
vt 0.451716 0.304853
vt 0.373591 0.248091
vt 0.343750 0.156250
vt 0.373591 0.064409
vt 0.451716 0.007647
vt 0.548284 0.007647
vt 0.626409 0.064409
vt 0.656250 0.156250
vt 0.626409 0.248091
vt 0.548284 0.304853
vt 0.451716 0.304853
vt 0.373591 0.248091
vt 0.343750 0.156250
vt 0.373591 0.064409
vt 0.451716 0.007647
vt 0.548284 0.007647
vt 0.656250 0.156250
vt 0.626409 0.248091
vt 0.548284 0.304853
vt 0.451716 0.304853
vt 0.373591 0.248091
vt 0.343750 0.156250
vt 0.373591 0.064409
vt 0.451716 0.007647
vt 0.548284 0.007647
vt 0.626409 0.064409
vt 0.656250 0.156250
vt 0.626409 0.248091
vt 0.548284 0.304853
vt 0.451716 0.304853
vt 0.373591 0.248091
vt 0.343750 0.156250
vt 0.373591 0.064409
vt 0.451716 0.007647
vt 0.548284 0.007647
vt 0.626409 0.064409
vn 0.588077 -0.808805 0.000037
vn 0.588079 -0.808804 0.000037
vn 0.587788 -0.809015 0.000000
vn 0.587788 -0.809015 0.000000
vn 0.000000 -1.000000 0.000000
vn 0.000000 -1.000000 0.000000
vn 0.000000 -1.000000 0.000000
vn 0.000000 -1.000000 0.000000
vn -0.588085 -0.808798 0.000849
vn -0.588068 -0.808811 0.000799
vn -0.587788 -0.809015 0.000000
vn -0.587788 -0.809015 0.000000
vn -0.951117 -0.308827 0.001777
vn -0.951115 -0.308832 0.001726
vn -0.951056 -0.309018 0.000000
vn -0.951056 -0.309018 0.000000
vn -0.951129 0.308788 0.001756
vn -0.951131 0.308782 0.001804
vn -0.951056 0.309018 0.000000
vn -0.951056 0.309018 0.000000
vn -0.588079 0.808803 0.000799
vn -0.588097 0.808790 0.000849
vn -0.587799 0.809007 0.000000
vn -0.587799 0.809007 0.000000
vn 0.000000 1.000000 -0.000000
vn 0.000000 1.000000 -0.000000
vn 0.000000 1.000000 0.000000
vn 0.000000 1.000000 0.000000
vn 0.588090 0.808796 0.000037
vn 0.588088 0.808797 0.000037
vn 0.587799 0.809007 0.000000
vn 0.587799 0.809007 0.000000
vn 0.951130 0.308792 0.000509
vn 0.951129 0.308795 0.000503
vn 0.951056 0.309019 0.000000
vn 0.951056 0.309019 0.000000
vn 0.951120 -0.308820 0.000482
vn 0.951121 -0.308817 0.000491
vn 0.951056 -0.309019 0.000000
vn 0.951056 -0.309019 0.000000
vn 0.558255 -0.331645 -0.760502
vn 0.555359 -0.331607 -0.762636
vn 0.121762 -0.289269 -0.949472
vn 0.121762 -0.289269 -0.949472
vn 0.558346 0.328970 -0.761596
vn 0.559170 0.328978 -0.760988
vn 0.119657 0.287469 -0.950286
vn 0.119657 0.287469 -0.950286
vn 0.318041 0.822629 -0.471308
vn 0.323359 0.822837 -0.467310
vn 0.115747 0.790171 -0.601857
vn 0.115747 0.790171 -0.601857
vn 0.000000 1.000000 0.000000
vn 0.000000 1.000000 0.000000
vn 0.000000 1.000000 0.000000
vn 0.000000 1.000000 0.000000
vn -0.302661 0.814349 0.495209
vn -0.310966 0.814880 0.489152
vn -0.157632 0.792279 0.589446
vn -0.157632 0.792279 0.589446
vn -0.494372 0.312005 0.811325
vn -0.499889 0.312221 0.807854
vn -0.256160 0.292317 0.921376
vn -0.256160 0.292317 0.921376
vn -0.497909 -0.314793 0.808079
vn -0.492717 -0.314569 0.811342
vn -0.255379 -0.294008 0.921054
vn -0.255379 -0.294008 0.921054
vn -0.310960 -0.814889 0.489143
vn -0.302654 -0.814358 0.495200
vn -0.157627 -0.792288 0.589435
vn -0.157627 -0.792288 0.589435
vn 0.000000 -1.000000 0.000000
vn 0.000000 -1.000000 0.000000
vn 0.000000 -1.000000 0.000000
vn 0.000000 -1.000000 0.000000
vn 0.323353 -0.822845 -0.467300
vn 0.318034 -0.822637 -0.471299
vn 0.115744 -0.790180 -0.601846
vn 0.115744 -0.790180 -0.601846
vn 0.000000 -0.309055 -0.951044
vn 0.000000 -0.309055 -0.951044
vn 0.000000 -0.309055 -0.951044
vn 0.000000 -0.309055 -0.951044
vn 0.000000 0.309055 -0.951044
vn 0.000000 0.309055 -0.951044
vn 0.000000 0.309055 -0.951044
vn 0.000000 0.309055 -0.951044
vn 0.000000 0.809004 -0.587804
vn 0.000000 0.809004 -0.587803
vn 0.000000 0.809004 -0.587803
vn 0.000000 0.809004 -0.587803
vn 0.000000 1.000000 0.000000
vn 0.000000 1.000000 0.000000
vn 0.000000 0.809004 0.587804
vn 0.000000 0.809004 0.587803
vn 0.000000 0.809004 0.587803
vn 0.000000 0.809004 0.587803
vn 0.000000 0.308932 0.951084
vn 0.000000 0.308932 0.951084
vn 0.000000 0.308932 0.951084
vn 0.000000 0.308932 0.951084
vn 0.000000 -0.308932 0.951084
vn 0.000000 -0.308932 0.951084
vn 0.000000 -0.308932 0.951084
vn 0.000000 -0.308932 0.951084
vn 0.000000 -0.809012 0.587792
vn 0.000000 -0.809012 0.587792
vn 0.000000 -0.809012 0.587792
vn 0.000000 -0.809012 0.587792
vn 0.000000 -1.000000 0.000000
vn 0.000000 -1.000000 0.000000
vn 0.000000 -0.809012 -0.587792
vn 0.000000 -0.809012 -0.587792
vn 0.000000 -0.809012 -0.587792
vn 0.000000 -0.809012 -0.587792
vn 0.949725 0.298275 -0.095154
vn 0.946939 0.298859 -0.118278
vn 0.588105 0.804239 -0.085628
vn 0.579135 0.806194 -0.121049
vn 0.000000 1.000000 -0.000000
vn 0.000000 1.000000 -0.000000
vn -0.564225 0.811787 0.150507
vn -0.555396 0.812995 0.174854
vn -0.909555 0.311919 0.274618
vn -0.905163 0.312298 0.288358
vn -0.904821 -0.314820 0.286682
vn -0.909151 -0.314392 0.273135
vn -0.555386 -0.813003 0.174851
vn -0.564215 -0.811794 0.150504
vn 0.000000 -1.000000 0.000000
vn 0.000000 -1.000000 0.000000
vn 0.579125 -0.806202 -0.121047
vn 0.588095 -0.804247 -0.085626
vn 0.946163 -0.301237 -0.118456
vn 0.949049 -0.300541 -0.094772
s 1
g pipe_small_end
usemtl anisotropic1SG
f 1/11/1 2/12/2 12/23/3 11/22/4
s 2
f 2/12/5 3/13/6 13/24/7 12/23/8
s 3
f 3/13/9 4/14/10 14/25/11 13/24/12
s 4
f 4/14/13 5/15/14 15/26/15 14/25/16
s 5
f 5/15/17 6/16/18 16/27/19 15/26/20
s 6
f 6/16/21 7/17/22 17/28/23 16/27/24
s 7
f 7/17/25 8/18/26 18/29/27 17/28/28
s 8
f 8/18/29 9/19/30 19/30/31 18/29/32
s 9
f 9/19/33 10/20/34 20/31/35 19/30/36
s 10
f 10/20/37 1/21/38 11/32/39 20/31/40
f 50/62/41 41/53/42 21/34/43 22/33/44
s 9
f 41/53/45 42/54/46 23/35/47 21/34/48
s 8
f 42/54/49 43/55/50 24/36/51 23/35/52
s 7
f 43/55/53 44/56/54 25/37/55 24/36/56
s 6
f 44/56/57 45/57/58 26/38/59 25/37/60
s 5
f 45/57/61 46/58/62 27/39/63 26/38/64
s 4
f 46/58/65 47/59/66 28/40/67 27/39/68
s 3
f 47/59/69 48/60/70 29/41/71 28/40/72
s 2
f 48/60/73 49/61/74 30/42/75 29/41/76
s 1
f 49/61/77 50/62/78 22/33/79 30/42/80
s off
f 22/33/81 21/34/82 31/44/83 32/43/84
f 21/34/85 23/35/86 33/45/87 31/44/88
f 23/35/89 24/36/90 34/46/91 33/45/92
s 7
f 24/36/56 25/37/55 35/47/93 34/46/94
s off
f 25/37/95 26/38/96 36/48/97 35/47/98
f 26/38/99 27/39/100 37/49/101 36/48/102
f 27/39/103 28/40/104 38/50/105 37/49/106
f 28/40/107 29/41/108 39/51/109 38/50/110
s 2
f 29/41/76 30/42/75 40/52/111 39/51/112
s off
f 30/42/113 22/33/114 32/43/115 40/52/116
s 9
f 51/63/117 52/64/118 42/54/46 41/53/45
s 8
f 52/64/119 53/65/120 43/55/50 42/54/49
s 7
f 53/65/121 54/66/122 44/56/54 43/55/53
s 6
f 54/66/123 55/67/124 45/57/58 44/56/57
s 5
f 55/67/125 56/68/126 46/58/62 45/57/61
s 4
f 56/68/127 57/69/128 47/59/66 46/58/65
s 3
f 57/69/129 58/70/130 48/60/70 47/59/69
s 2
f 58/70/131 59/71/132 49/61/74 48/60/73
s 1
f 59/71/133 60/72/134 50/62/78 49/61/77
s 10
f 60/72/135 51/63/136 41/53/42 50/62/41
s 9
f 10/10/34 9/9/33 52/64/118 51/63/117
s 8
f 9/9/30 8/8/29 53/65/120 52/64/119
s 7
f 8/8/26 7/7/25 54/66/122 53/65/121
s 6
f 7/7/22 6/6/21 55/67/124 54/66/123
s 5
f 6/6/18 5/5/17 56/68/126 55/67/125
s 4
f 5/5/14 4/4/13 57/69/128 56/68/127
s 3
f 4/4/10 3/3/9 58/70/130 57/69/129
s 2
f 3/3/6 2/2/5 59/71/132 58/70/131
s 1
f 2/2/2 1/1/1 60/72/134 59/71/133
s 10
f 1/1/38 10/10/37 51/63/136 60/72/135
